<?xml version="1.0" encoding="utf-8"?>
<!-- Generator: Adobe Illustrator 18.1.1, SVG Export Plug-In . SVG Version: 6.00 Build 0)  -->
<svg version="1.1" id="Layer_1" xmlns="http://www.w3.org/2000/svg" xmlns:xlink="http://www.w3.org/1999/xlink" x="0px" y="0px"
	 viewBox="0 0 1126.1 1385.7" enable-background="new 0 0 1126.1 1385.7" xml:space="preserve">
<g>
	<rect x="199" y="965.4" fill="#FFFFFF" width="22.8" height="244.1"/>
	<polygon fill="#FFFFFF" points="771.2,988.1 771.2,965.4 722.7,965.4 700,965.4 651.5,965.4 651.5,988.1 700,988.1 700,1209.5 
		722.7,1209.5 722.7,988.1 	"/>
	<path fill="#FFFFFF" d="M599.4,1020.5c0-31.9-25.2-55.1-59.8-55.1s-59.8,23.2-59.8,55.1v133.8c0,31.9,25.2,55.1,59.8,55.1
		s59.8-23.2,59.8-55.1V1020.5z M576.6,1154.3c0,22.2-19.2,32.4-37.1,32.4c-17.9,0-37.1-10.1-37.1-32.4v-133.8
		c0-22.2,19.2-32.4,37.1-32.4c17.9,0,37.1,10.1,37.1,32.4V1154.3z"/>
	<path fill="#FFFFFF" d="M873.2,965.4c-34.7,0-59.8,23.2-59.8,55.1v133.8c0,31.9,25.2,55.1,59.8,55.1c34.7,0,59.8-23.2,59.8-55.1
		v-133.8C933.1,988.6,907.9,965.4,873.2,965.4z M910.3,1154.3c0,22.2-19.2,32.4-37.1,32.4c-17.9,0-37.1-10.1-37.1-32.4v-133.8
		c0-22.2,19.2-32.4,37.1-32.4c17.9,0,37.1,10.1,37.1,32.4V1154.3z"/>
	<path fill="#FFFFFF" d="M66.2,965.4c-34.7,0-59.8,23.2-59.8,55.1v13.6c0,15.2,7.4,29.6,19.8,38.5l66.9,48.1
		c6.4,4.6,10.3,12.1,10.3,20.1v13.6c0,22.2-19.2,32.4-37.1,32.4s-37.1-10.1-37.1-32.4v-34H6.4v34c0,31.9,25.2,55.1,59.8,55.1
		s59.8-23.2,59.8-55.1v-13.6c0-15.2-7.4-29.7-19.8-38.5l-66.9-48.1c-6.4-4.6-10.3-12.1-10.3-20.1v-13.6c0-22.2,19.2-32.4,37.1-32.4
		s37.1,10.1,37.1,32.4v34h22.8v-34C126.1,988.6,100.9,965.4,66.2,965.4z"/>
	<polygon fill="#FFFFFF" points="1095.1,969.7 1049.8,1147.4 1004.5,969.7 981,969.7 1041.1,1205.1 1058.5,1205.1 1118.6,969.7 	"/>
	<path fill="#FFFFFF" d="M417,1025.2c0-34.7-23.2-59.8-55.1-59.8H320h-22.8v22.8v74.2v22.8v124.4H320V1085h36l25.6,120.1h23.3
		l-26.1-122.6C401.6,1075.3,417,1053.4,417,1025.2z M361.8,1062.3H320v-74.2h41.8c22.2,0,32.4,19.2,32.4,37.1
		C394.2,1043.1,384.1,1062.3,361.8,1062.3z"/>
	<path fill="#FFFFFF" d="M375.5,1318.8c-7.9,0-13.6,5.2-13.6,12.5v31.5c0,7.2,5.7,12.5,13.6,12.5c7.9,0,13.6-5.2,13.6-12.5v-9.7
		h-4.3v9.7c0,4.8-3.8,8.1-9.2,8.1c-5.4,0-9.2-3.3-9.2-8.1v-31.5c0-4.8,3.8-8.1,9.2-8.1c5.4,0,9.2,3.3,9.2,8.1v9.7h4.3v-9.7
		C389,1324,383.3,1318.8,375.5,1318.8z"/>
	<path fill="#FFFFFF" d="M760.2,1318.8c-7.9,0-13.6,5.2-13.6,12.5v31.5c0,7.2,5.7,12.5,13.6,12.5c7.9,0,13.6-5.2,13.6-12.5v-9.7
		h-4.3v9.7c0,4.8-3.8,8.1-9.2,8.1c-5.4,0-9.2-3.3-9.2-8.1v-31.5c0-4.8,3.8-8.1,9.2-8.1c5.4,0,9.2,3.3,9.2,8.1v9.7h4.3v-9.7
		C773.7,1324,768,1318.8,760.2,1318.8z"/>
	<polygon fill="#FFFFFF" points="467.5,1344.8 449,1344.8 449,1319.9 444.7,1319.9 444.7,1344.8 444.7,1349.2 444.7,1374.1 
		449,1374.1 449,1349.2 467.5,1349.2 467.5,1374.1 471.8,1374.1 471.8,1349.2 471.8,1344.8 471.8,1319.9 467.5,1319.9 	"/>
	<rect x="529.7" y="1319.9" fill="#FFFFFF" width="4.3" height="54.2"/>
	<path fill="#FFFFFF" d="M915.1,1318.8c-7.9,0-13.6,5.2-13.6,12.5v3.2c0,3.4,1.7,6.7,4.4,8.7l15.7,11.3c1.6,1.2,2.6,3.1,2.6,5.1v3.2
		c0,4.8-3.8,8.1-9.2,8.1c-5.4,0-9.2-3.3-9.2-8.1v-7.5h-4.3v7.5c0,7.2,5.7,12.5,13.6,12.5c7.9,0,13.6-5.2,13.6-12.5v-3.2
		c0-3.4-1.7-6.7-4.4-8.7l-15.7-11.3c-1.6-1.2-2.6-3.1-2.6-5.1v-3.2c0-4.8,3.8-8.1,9.2-8.1c5.4,0,9.2,3.3,9.2,8.1v7.5h4.3v-7.5
		C928.6,1324,922.9,1318.8,915.1,1318.8z"/>
	<path fill="#FFFFFF" d="M297.5,1318.8h-11.6h-4.3v4.3v18.4v4.3v27h4.3v-27h9.4h0.2l5.7,26.9h4.4l-5.8-27.2
		c6-1.1,10.1-6.4,10.1-13.3C310,1324.5,304.7,1318.8,297.5,1318.8z M297.5,1341.6h-2.2h-9.4v-18.4h11.6c4.8,0,8.1,3.8,8.1,9.2
		S302.3,1341.6,297.5,1341.6z"/>
	<polygon fill="#FFFFFF" points="210.1,1318.8 196.4,1372.9 200.8,1372.9 212,1329.2 223.1,1372.9 227.6,1372.9 213.8,1318.8 	"/>
	<polygon fill="#FFFFFF" points="599.4,1319.9 588,1319.9 588,1324.2 599.4,1324.2 599.4,1374.1 603.8,1374.1 603.8,1324.2 
		615.2,1324.2 615.2,1319.9 603.8,1319.9 	"/>
	<polygon fill="#FFFFFF" points="836.2,1319.9 824.8,1319.9 824.8,1324.2 836.2,1324.2 836.2,1374.1 840.5,1374.1 840.5,1324.2 
		851.9,1324.2 851.9,1319.9 840.5,1319.9 	"/>
	<polygon fill="#FFFFFF" points="667.8,1319.9 667.8,1324.2 667.8,1344.8 667.8,1349.2 667.8,1369.7 667.8,1374.1 672.2,1374.1 
		695,1374.1 695,1369.7 672.2,1369.7 672.2,1349.2 689.4,1349.2 689.4,1344.8 672.2,1344.8 672.2,1324.2 695,1324.2 695,1319.9 
		672.2,1319.9 	"/>
	<path fill="#FFFFFF" d="M925.9,6.9H199.1v726.9h726.9V6.9z M823.8,105.8H301.2l-76.2-76.2h675.2L823.8,105.8z M822.5,110.3v520
		h-520v-520H822.5z M298,109v522.7l-76.2,76.2V32.8L298,109z M301.2,634.9h522.7l76.2,76.2H224.9L301.2,634.9z M827,631.7V109
		l76.2-76.2v675.2L827,631.7z"/>
</g>
</svg>
