<?xml version="1.0" encoding="utf-8"?>
<!-- Generator: Adobe Illustrator 18.1.1, SVG Export Plug-In . SVG Version: 6.00 Build 0)  -->
<svg version="1.1" id="Слой_1" xmlns="http://www.w3.org/2000/svg" xmlns:xlink="http://www.w3.org/1999/xlink" x="0px" y="0px"
	 viewBox="453.3 101 150.5 146.3" enable-background="new 453.3 101 150.5 146.3" xml:space="preserve">
<g id="Слой_x0020_1">
	<rect x="485.2" y="116.4" fill="#FFFFFF" stroke="#FFFFFF" stroke-width="0.2" width="2.7" height="29"/>
	<polygon fill="#FFFFFF" stroke="#FFFFFF" stroke-width="0.2" points="553.1,119.1 553.1,116.4 547.3,116.4 544.6,116.4 
		538.9,116.4 538.9,119.1 544.6,119.1 544.6,145.4 547.3,145.4 547.3,119.1 	"/>
	<path fill="#FFFFFF" stroke="#FFFFFF" stroke-width="0.2" d="M532.7,122.9c0-3.8-3-6.5-7.1-6.5s-7.1,2.8-7.1,6.5v15.9
		c0,3.8,3,6.5,7.1,6.5s7.1-2.8,7.1-6.5V122.9z M530,138.8c0,2.6-2.3,3.8-4.4,3.8c-2.1,0-4.4-1.2-4.4-3.8v-15.9
		c0-2.6,2.3-3.8,4.4-3.8c2.1,0,4.4,1.2,4.4,3.8V138.8z"/>
	<path fill="#FFFFFF" stroke="#FFFFFF" stroke-width="0.2" d="M565.2,116.4c-4.1,0-7.1,2.8-7.1,6.5v15.9c0,3.8,3,6.5,7.1,6.5
		c4.1,0,7.1-2.8,7.1-6.5v-15.9C572.3,119.2,569.3,116.4,565.2,116.4z M569.6,138.8c0,2.6-2.3,3.8-4.4,3.8c-2.1,0-4.4-1.2-4.4-3.8
		v-15.9c0-2.6,2.3-3.8,4.4-3.8c2.1,0,4.4,1.2,4.4,3.8V138.8z"/>
	<path fill="#FFFFFF" stroke="#FFFFFF" stroke-width="0.2" d="M469.4,116.4c-4.1,0-7.1,2.8-7.1,6.5v1.6c0,1.8,0.9,3.5,2.3,4.6
		l7.9,5.7c0.8,0.5,1.2,1.4,1.2,2.4v1.6c0,2.6-2.3,3.8-4.4,3.8c-2.1,0-4.4-1.2-4.4-3.8v-4h-2.7v4c0,3.8,3,6.5,7.1,6.5
		c4.1,0,7.1-2.8,7.1-6.5v-1.6c0-1.8-0.9-3.5-2.3-4.6l-7.9-5.7c-0.8-0.5-1.2-1.4-1.2-2.4v-1.6c0-2.6,2.3-3.8,4.4-3.8
		c2.1,0,4.4,1.2,4.4,3.8v4l2.7,0v-4C476.5,119.2,473.5,116.4,469.4,116.4L469.4,116.4z"/>
	<polygon fill="#FFFFFF" stroke="#FFFFFF" stroke-width="0.2" points="591.5,116.9 586.1,138 580.7,116.9 578,116.9 585.1,144.8 
		587.1,144.8 594.3,116.9 	"/>
	<path fill="#FFFFFF" stroke="#FFFFFF" stroke-width="0.2" d="M511,123.5c0-4.1-2.8-7.1-6.5-7.1h-5h-2.7v2.7v8.8v2.7v14.8h2.7v-14.8
		h4.3l3,14.2h2.8l-3.1-14.5C509.2,129.4,511,126.8,511,123.5L511,123.5z M504.5,127.9h-5v-8.8h5c2.6,0,3.8,2.3,3.8,4.4
		S507.1,127.9,504.5,127.9z"/>
	<path fill="#FFFFFF" stroke="#FFFFFF" stroke-width="0.2" d="M531.2,165.6c-3,0-5.2,2-5.2,4.8v12.1c0,2.8,2.2,4.8,5.2,4.8
		c3,0,5.2-2,5.2-4.8v-3.7h-1.6v3.7c0,1.8-1.5,3.1-3.5,3.1s-3.5-1.3-3.5-3.1v-12.1c0-1.8,1.5-3.1,3.5-3.1c2.1,0,3.5,1.3,3.5,3.1v3.7
		h1.6v-3.7C536.4,167.6,534.2,165.6,531.2,165.6z"/>
	<path fill="#FFFFFF" stroke="#FFFFFF" stroke-width="0.2" d="M531.5,203.5c-3,0-5.2,2-5.2,4.8v12.1c0,2.8,2.2,4.8,5.2,4.8
		c3,0,5.2-2,5.2-4.8v-3.7h-1.6v3.7c0,1.8-1.5,3.1-3.5,3.1c-2.1,0-3.5-1.3-3.5-3.1v-12.1c0-1.8,1.5-3.1,3.5-3.1
		c2.1,0,3.5,1.3,3.5,3.1v3.7h1.6v-3.7C536.7,205.5,534.5,203.5,531.5,203.5z"/>
	<polygon fill="#FFFFFF" stroke="#FFFFFF" stroke-width="0.2" points="566.5,175.6 559.4,175.6 559.4,166 557.8,166 557.8,175.6 
		557.8,177.3 557.8,186.8 559.4,186.8 559.4,177.3 566.5,177.3 566.5,186.8 568.2,186.8 568.2,177.3 568.2,175.6 568.2,166 
		566.5,166 	"/>
	<rect x="590.8" y="166" fill="#FFFFFF" stroke="#FFFFFF" stroke-width="0.2" width="1.6" height="20.8"/>
	<path fill="#FFFFFF" stroke="#FFFFFF" stroke-width="0.2" d="M588.7,203.5c-3,0-5.2,2-5.2,4.8v1.2c0,1.3,0.7,2.6,1.7,3.3l6,4.3
		c0.6,0.5,1,1.2,1,2v1.2c0,1.8-1.5,3.1-3.5,3.1s-3.5-1.3-3.5-3.1v-2.9l-1.6,0v2.9c0,2.8,2.2,4.8,5.2,4.8c3,0,5.2-2,5.2-4.8v-1.2
		c0-1.3-0.7-2.6-1.7-3.3l-6-4.3c-0.6-0.5-1-1.2-1-2v-1.2c0-1.8,1.5-3.1,3.5-3.1s3.5,1.3,3.5,3.1v2.9l1.6,0v-2.9
		C593.8,205.5,591.7,203.5,588.7,203.5L588.7,203.5z"/>
	<path fill="#FFFFFF" stroke="#FFFFFF" stroke-width="0.2" d="M501.3,165.6h-4.5h-1.6v1.6v7.1v1.6v10.4l1.6,0V176h3.6h0.1l2.2,10.3
		l1.7,0l-2.2-10.4c2.3-0.4,3.9-2.5,3.9-5.1C506.1,167.8,504,165.6,501.3,165.6L501.3,165.6z M501.3,174.3h-0.8h-3.6v-7.1h4.5
		c1.8,0,3.1,1.5,3.1,3.5C504.4,172.9,503.1,174.3,501.3,174.3z"/>
	<polygon fill="#FFFFFF" stroke="#FFFFFF" stroke-width="0.2" points="467.7,165.6 462.5,186.4 464.2,186.4 468.5,169.6 
		472.7,186.4 474.5,186.4 469.2,165.6 	"/>
	<polygon fill="#FFFFFF" stroke="#FFFFFF" stroke-width="0.2" points="467.8,204 463.4,204 463.4,205.6 467.8,205.6 467.8,224.7 
		469.5,224.7 469.5,205.6 473.8,205.6 473.8,204 469.5,204 	"/>
	<polygon fill="#FFFFFF" stroke="#FFFFFF" stroke-width="0.2" points="562.4,204 558,204 558,205.6 562.4,205.6 562.4,224.7 
		564,224.7 564,205.6 568.4,205.6 568.4,204 564,204 	"/>
	<polygon fill="#FFFFFF" stroke="#FFFFFF" stroke-width="0.2" points="494.9,204 494.9,205.6 494.9,213.5 494.9,215.2 494.9,223.1 
		494.9,224.7 496.6,224.7 505.3,224.7 505.3,223.1 496.6,223.1 496.6,215.2 503.2,215.2 503.2,213.5 496.6,213.5 496.6,205.6 
		505.3,205.6 505.3,204 496.6,204 	"/>
	<g>
		<path fill="#FFFFFF" d="M602.5,246.3H454.4V102.3h148.2V246.3z M455.4,245.3h146.2V103.3H455.4V245.3z"/>
	</g>
</g>
</svg>
