<?xml version="1.0" encoding="utf-8"?>
<!-- Generator: Adobe Illustrator 18.1.1, SVG Export Plug-In . SVG Version: 6.00 Build 0)  -->
<svg version="1.1" id="Слой_1" xmlns="http://www.w3.org/2000/svg" xmlns:xlink="http://www.w3.org/1999/xlink" x="0px" y="0px"
	 viewBox="0 0 1030.4 89.6" enable-background="new 0 0 1030.4 89.6" xml:space="preserve">
<g>
	<path fill="#FFFFFF" d="M5.7,86.3h188.7v-7.6H81.3v-7.5h113.2v-7.5H81.3v-7.6h113.2v-7.5H5.7V86.3z M5.7,10.8H119v7.6H5.7v7.5H119
		v7.6H5.7V41h188.7V3.3H5.7V10.8z M295.6,47c3.6-2.7,5.4-6.6,5.4-11.6V20.8c0-6.4-2.5-10.9-7.5-13.6c-5-2.6-13-4-23.9-4h-37.4v83h20
		V53.7h9.2l21.7,32.6h23l-24-34.2C287.5,51.5,292,49.8,295.6,47z M281.4,31.4c0,3.6-0.9,6-2.6,7.2c-1.7,1.2-4.9,1.9-9.6,1.9h-17.1
		v-23h17.1c4.4,0,7.6,0.6,9.4,1.7c1.8,1.2,2.8,3.3,2.8,6.3V31.4z M334.7,50.7h39.1V36.5h-39.1V17.5h43.4V3.3h-63.3v83h64.6V72.1
		h-44.6V50.7z M415.6,3.3l-30.7,83h19.7l7.3-21.9h30.3l7.4,21.9h20.2l-29.9-83H415.6z M416.3,51.1l10.5-31.2h0.5l10.5,31.2H416.3z
		 M537.7,60L497.5,3.3h-20.2v83h17.8V28.7l40.2,57.6h20.2v-83h-17.8V60z M570.7,86.3h20v-83h-20V86.3z M654.7,62.6L634.3,3.3h-28.4
		v83h18.3V24.9h0.5l21.6,61.4h16l21-61.4h0.4v61.4h18v-83h-26.7L654.7,62.6z M740,3.3l-30.7,83H729l7.3-21.9h30.3l7.4,21.9h20.2
		l-29.9-83H740z M740.7,51.1l10.5-31.2h0.5l10.5,31.2H740.7z M786.3,17.5h25.6v68.8h20V17.5h25.5V3.3h-71V17.5z M931.1,8.5
		c-2.7-1.7-6-3.1-9.8-4.2c-3.8-1.1-7.3-1.7-10.3-2c-3-0.3-6.2-0.4-9.7-0.4c-3.3,0-6.5,0.1-9.5,0.4c-3,0.3-6.4,0.9-10.2,2
		c-3.8,1.1-7.1,2.5-9.8,4.2c-2.7,1.7-5,4.2-6.9,7.4c-1.9,3.2-2.9,7-2.9,11.3v36.3c0,5,1.3,9.3,3.9,12.7c2.6,3.4,6.1,5.9,10.5,7.4
		c4.4,1.5,8.5,2.6,12.4,3.1c3.9,0.6,8,0.8,12.5,0.8c4.7,0,9.1-0.3,13.3-1c4.2-0.7,8.4-1.9,12.5-3.5c4.2-1.7,7.5-4.2,10-7.5
		c2.5-3.3,3.7-7.3,3.7-12V27.2c0-4.3-0.9-8.1-2.8-11.3C936.1,12.7,933.8,10.2,931.1,8.5z M920.8,63.5c0,2.1-0.5,3.9-1.6,5.3
		c-1.1,1.4-2.6,2.4-4.7,3c-2,0.6-4,1-5.9,1.2c-1.9,0.2-4.3,0.3-7.1,0.3s-5.2-0.1-7.1-0.3c-1.9-0.2-3.9-0.6-6-1.2
		c-2.1-0.6-3.7-1.6-4.8-3c-1.1-1.4-1.7-3.2-1.7-5.3V27.1c0-4.1,1.6-6.9,4.9-8.5c3.2-1.6,8.1-2.4,14.6-2.4c6.4,0,11.2,0.8,14.5,2.4
		c3.3,1.6,4.9,4.4,4.9,8.4V63.5z M1002,52.2c5.4-0.7,9.9-2.4,13.5-5.1c3.6-2.7,5.4-6.6,5.4-11.6V20.8c0-6.4-2.5-10.9-7.5-13.6
		c-5-2.6-13-4-23.9-4h-37.4v83h20V53.7h9.2l21.7,32.6h23L1002,52.2z M1001.4,31.4c0,3.6-0.9,6-2.6,7.2c-1.7,1.2-4.9,1.9-9.6,1.9
		h-17.1v-23h17.1c4.4,0,7.6,0.6,9.4,1.7c1.8,1.2,2.8,3.3,2.8,6.3V31.4z"/>
</g>
</svg>
