<?xml version="1.0" encoding="utf-8"?>
<!-- Generator: Adobe Illustrator 18.1.1, SVG Export Plug-In . SVG Version: 6.00 Build 0)  -->
<svg version="1.1" id="Слой_1" xmlns="http://www.w3.org/2000/svg" xmlns:xlink="http://www.w3.org/1999/xlink" x="0px" y="0px"
	 viewBox="0 0 351.4 37" enable-background="new 0 0 351.4 37" xml:space="preserve">
<g>
	<g>
		<path fill="#ffffff" d="M1.3,8.1h45v-3h-45v-3h75v15h-75v-3h45v-3h-45V8.1z M76.3,26.1h-45v-3h45v-3h-75v15h75v-3h-45v-3h45V26.1z"/>
	</g>
	<g>
		<path fill="#ffffff" d="M120.7,35.1h-9.2l-8.6-13h-3.7v13h-7.9v-33h14.8c4.3,0,7.5,0.5,9.5,1.6c2,1.1,3,2.8,3,5.4v5.8c0,2-0.7,3.5-2.2,4.6
			c-1.4,1.1-3.2,1.8-5.4,2L120.7,35.1z M110.9,13.3v-2.3c0-1.2-0.4-2.1-1.1-2.5c-0.7-0.5-2-0.7-3.7-0.7h-6.8v9.2h6.8
			c1.9,0,3.1-0.2,3.8-0.7C110.6,15.6,110.9,14.7,110.9,13.3z"/>
		<path fill="#ffffff" d="M145.7,24.7h-16V27c0,1.4,0.5,2.4,1.5,3c1,0.6,2.8,0.9,5.5,0.9c2.4,0,5.2-0.4,8.2-1.1v4.7c-3.1,0.6-6.3,1-9.7,1
			c-8.7,0-13.1-2.7-13.1-8v-8.8c0-3.2,1-5.4,3.1-6.8c2-1.4,5.1-2,9.1-2c3.8,0,6.6,0.6,8.5,1.9c1.9,1.3,2.8,3.6,2.8,6.9V24.7z
			 M138.6,20.5V17c0-0.8-0.3-1.4-0.9-1.8c-0.6-0.4-1.8-0.6-3.4-0.6c-1.8,0-3,0.2-3.6,0.6c-0.6,0.4-0.9,1-0.9,1.8v3.6H138.6z"/>
		<path fill="#ffffff" d="M172.1,35.1h-7.3v-2.2c-0.5,1-1.3,1.7-2.3,2.1c-1,0.4-2.9,0.6-5.6,0.6c-3.3,0-5.5-0.5-6.6-1.5c-1.1-1-1.6-3.1-1.6-6.4
			c0-2.9,0.6-4.9,1.7-6.1c1.1-1.1,3.1-1.7,6-1.7h8.3v-1.7c0-1.5-0.3-2.5-1-3c-0.7-0.5-2.2-0.7-4.4-0.7c-2.1,0-5,0.2-8.6,0.6v-4.7
			c2.8-0.3,5.9-0.5,9.4-0.5c4.5,0,7.7,0.6,9.5,1.7c1.8,1.1,2.6,3.3,2.6,6.5V35.1z M164.7,28.8V24h-5.1c-1.6,0-2.6,0.2-3.1,0.6
			c-0.4,0.4-0.6,1.4-0.6,3c0,1.6,0.2,2.6,0.6,2.9c0.4,0.3,1.5,0.5,3.2,0.5c0.8,0,1.5,0,1.9,0c0.4,0,0.8-0.1,1.3-0.1
			c0.5-0.1,0.8-0.2,1-0.3c0.2-0.2,0.3-0.4,0.5-0.6C164.6,29.6,164.7,29.2,164.7,28.8z"/>
		<path fill="#ffffff" d="M200.2,35.1h-7.4V18c0-1.4-0.2-2.3-0.7-2.7c-0.5-0.5-1.6-0.7-3.3-0.7c-2.1,0-3.5,0.2-4.1,0.7c-0.6,0.5-0.9,1.4-0.9,2.8
			v17.1h-7.4V10.5h7.3v3c0.6-2.3,3.2-3.5,7.9-3.5c3.3,0,5.5,0.6,6.7,1.8c1.2,1.2,1.8,2.9,1.8,5.3V35.1z"/>
		<path fill="#ffffff" d="M212.1,7.6h-7.4v-6h7.4V7.6z M212.1,35.1h-7.4V10.5h7.4V35.1z"/>
		<path fill="#ffffff" d="M254.7,35.1h-7.4V18c0-1.5-0.2-2.4-0.5-2.9c-0.4-0.4-1.3-0.6-2.9-0.6c-2,0-3.3,0.2-3.7,0.6c-0.5,0.4-0.7,1.4-0.7,2.9v17
			h-7.4V18c0-1.5-0.2-2.4-0.5-2.9c-0.4-0.4-1.3-0.6-2.9-0.6c-2,0-3.3,0.2-3.7,0.6c-0.5,0.4-0.7,1.4-0.7,2.9v17h-7.4V10.5h7.4v3
			c0.5-2.3,2.9-3.5,7.3-3.5c2.3,0,4.1,0.3,5.3,0.9c1.2,0.6,2,1.5,2.4,2.7c0.4-1.3,1.2-2.2,2.3-2.8c1.1-0.6,2.9-0.9,5.4-0.9
			c3.2,0,5.4,0.6,6.4,1.7c1.1,1.1,1.6,2.9,1.6,5.4V35.1z"/>
		<path fill="#ffffff" d="M281.5,35.1h-7.3v-2.2c-0.5,1-1.3,1.7-2.3,2.1c-1,0.4-2.9,0.6-5.6,0.6c-3.3,0-5.5-0.5-6.6-1.5c-1.1-1-1.6-3.1-1.6-6.4
			c0-2.9,0.6-4.9,1.7-6.1c1.1-1.1,3.1-1.7,6-1.7h8.3v-1.7c0-1.5-0.3-2.5-1-3c-0.7-0.5-2.2-0.7-4.4-0.7c-2.1,0-5,0.2-8.6,0.6v-4.7
			c2.8-0.3,5.9-0.5,9.4-0.5c4.5,0,7.7,0.6,9.5,1.7c1.8,1.1,2.6,3.3,2.6,6.5V35.1z M274.1,28.8V24H269c-1.6,0-2.6,0.2-3.1,0.6
			c-0.4,0.4-0.6,1.4-0.6,3c0,1.6,0.2,2.6,0.6,2.9c0.4,0.3,1.5,0.5,3.2,0.5c0.8,0,1.5,0,1.9,0c0.4,0,0.8-0.1,1.3-0.1
			c0.5-0.1,0.8-0.2,1-0.3c0.2-0.2,0.3-0.4,0.5-0.6C274,29.6,274.1,29.2,274.1,28.8z"/>
		<path fill="#ffffff" d="M303.2,35.3c-1.4,0.2-2.8,0.3-4.1,0.3c-1.2,0-2.2,0-3-0.1c-0.9-0.1-1.8-0.3-2.7-0.6c-0.9-0.3-1.7-0.7-2.3-1.3
			c-0.6-0.5-1.1-1.3-1.5-2.2c-0.4-1-0.6-2.1-0.6-3.4V15h-5v-4.6h5V3.3h7.4v7.1h6.8V15h-6.8v11.6c0,1.7,0.3,2.8,0.8,3.4
			c0.5,0.6,1.6,0.9,3.4,0.9c0.6,0,1.5-0.1,2.6-0.3V35.3z"/>
		<path fill="#ffffff" d="M330.6,19.4v7.3c0,1.6-0.3,3-0.8,4.1c-0.5,1.1-1.1,2-1.9,2.6c-0.7,0.6-1.7,1.1-2.9,1.4c-1.2,0.3-2.3,0.6-3.3,0.6
			c-1,0.1-2.2,0.1-3.6,0.1s-2.6,0-3.6-0.1c-1-0.1-2.1-0.3-3.3-0.6c-1.2-0.3-2.2-0.8-2.9-1.4c-0.7-0.6-1.4-1.5-1.9-2.6
			c-0.5-1.1-0.8-2.5-0.8-4.1v-7.3c0-1.7,0.3-3.1,0.8-4.3c0.5-1.2,1.2-2.1,1.9-2.8c0.8-0.6,1.8-1.1,3-1.5c1.2-0.4,2.3-0.6,3.3-0.7
			c1-0.1,2.1-0.1,3.5-0.1c1.4,0,2.6,0,3.5,0.1c1,0.1,2.1,0.3,3.3,0.7c1.2,0.4,2.2,0.9,3,1.5c0.8,0.6,1.4,1.6,1.9,2.8
			C330.4,16.2,330.6,17.7,330.6,19.4z M323.2,27.5v-9.3c0-1.3-0.3-2.3-1-2.8c-0.7-0.6-2-0.8-4.1-0.8c-2,0-3.4,0.3-4.1,0.8
			c-0.7,0.6-1,1.5-1,2.8v9.3c0,1.3,0.3,2.2,1,2.7c0.7,0.5,2,0.8,4.1,0.8c2.1,0,3.4-0.3,4.1-0.8C322.9,29.7,323.2,28.8,323.2,27.5z"
			/>
		<path fill="#ffffff" d="M350.6,16.1h-2.5c-2,0-3.6,0.3-4.6,0.9c-1,0.6-1.6,1.7-1.6,3.2v14.8h-7.4V10.5h7.1v4.3c0-1.2,0.7-2.3,2.1-3.3
			c1.4-1,2.8-1.5,4.3-1.5h2.6V16.1z"/>
	</g>
</g>
</svg>
