<?xml version="1.0" encoding="utf-8"?>
<!-- Generator: Adobe Illustrator 18.1.1, SVG Export Plug-In . SVG Version: 6.00 Build 0)  -->
<svg version="1.1" id="Слой_1" xmlns="http://www.w3.org/2000/svg" xmlns:xlink="http://www.w3.org/1999/xlink" x="0px" y="0px"
	 viewBox="0 0 300.8 39.5" enable-background="new 0 0 300.8 39.5" xml:space="preserve">
<path fill="#ffffff" d="M77.2,11c0-4.4-1.6-7.1-5.1-8.5c-2.7-1.1-6.9-1.1-11.7-1.1c-1.8,0-15.8,0-15.8,0v34c0,1.6,1.3,2.8,2.8,2.8
	H54V6.1h6.4c3.7,0,7.4,0.1,7.4,5.4c0,4.1-2.7,7.9-10,9.3l9.4,15.5c0.7,1.2,2,1.9,3.4,1.9h9.1L68.5,22C73.2,20.6,77.2,16.8,77.2,11z"
	/>
<path fill="#ffffff" d="M288.6,22c4.7-1.4,8.7-5.3,8.7-11c0-4.4-1.6-7.1-5.1-8.5c-2.7-1.1-6.9-1.1-11.7-1.1c-1.8,0-15.8,0-15.8,0v34
	c0,1.6,1.3,2.8,2.8,2.8h6.6V6.1h6.4c3.7,0,7.4,0.1,7.4,5.4c0,4.1-2.7,7.9-10,9.3l9.4,15.5c0.7,1.2,2,1.9,3.4,1.9h9.1L288.6,22z"/>
<path fill="#ffffff" d="M106.9,1.4l-8.6,0L83.7,38.2h3.5c1.7,0,3.2-1,3.7-2.6l2.7-7.5h16.4l3.1,7.7c0.6,1.5,2.1,2.5,3.7,2.5h7.4
	L110.6,3.9C110,2.4,108.5,1.4,106.9,1.4z M95.3,23.4l6.1-16.9l6.7,16.9H95.3z"/>
<path fill="#ffffff" d="M162.1,31.4L142.9,3.1c-0.7-1.1-2-1.7-3.3-1.7l-9.3,0v36.8h5.3L135,8.3l19.2,28.2c0.7,1.1,2,1.7,3.3,1.7h9.3
	V1.4h-5.7L162.1,31.4z"/>
<path fill="#ffffff" d="M199.4,1.4h-21.6v34c0,1.6,1.3,2.8,2.8,2.8h18.8c11.5,0,14.5-4.6,14.5-18.4S210.9,1.4,199.4,1.4z
	 M204.3,28.7c-0.2,2.3-2,4.8-4.9,4.8h-12.2V6.1h12.2c2.9,0,4.7,2.5,4.9,4.8C204.5,13,204.5,26.7,204.3,28.7z"/>
<path fill="#ffffff" d="M233.3,1.4h-9.4v34c0,1.6,1.3,2.8,2.8,2.8h25.9c2.2,0,4-1.8,4-4v-1.6l-23.2,0.7V20.6h12.1c2.2,0,4-1.8,4-4
	v-1.6l-16.1,0.6V6.1h19.3c2.2,0,4-1.8,4-4V1.4L233.3,1.4L233.3,1.4z"/>
<path fill="#ffffff" d="M30.3,18.9c1.8-1.2,4.2-3.6,4.2-7.9c0-4.4-1.6-7.1-5.1-8.5c-2.7-1.1-6.9-1.1-11.7-1.1c-1.8,0-15.8,0-15.8,0
	v34c0,1.6,1.3,2.8,2.8,2.8H19c4.8,0,8.6-0.2,11.3-1.3c3.5-1.4,5.6-4.2,5.6-9.3C35.9,23.2,33.5,20.5,30.3,18.9z M19.3,33.6h-8V6.1
	h6.4c3.7,0,7.4,0.1,7.4,5.4c0,1.6-0.5,2.9-1.3,4c-1.2,1.5-3.4,1.5-5.4,1.6c-2.5,0-3.8,0-3.8,0s-0.5,3.6,3.1,4.3
	c3.3,0.6,6.8-0.1,8.2,3c0.4,0.8,0.6,1.8,0.6,2.9C26.4,32.4,23,33.6,19.3,33.6z"/>
</svg>
